<?xml version="1.0" encoding="utf-8"?>
<!-- Generator: Adobe Illustrator 16.0.0, SVG Export Plug-In . SVG Version: 6.00 Build 0)  -->
<!DOCTYPE svg PUBLIC "-//W3C//DTD SVG 1.1//EN" "http://www.w3.org/Graphics/SVG/1.1/DTD/svg11.dtd">
<svg version="1.1" id="Layer_1" xmlns="http://www.w3.org/2000/svg" xmlns:xlink="http://www.w3.org/1999/xlink" x="0px" y="0px"
	 width="402.645px" height="42.094px" viewBox="0 0 402.645 42.094" enable-background="new 0 0 402.645 42.094"
	 xml:space="preserve">
<g id="XMLID_2_">
	<g>
		<path d="M402.368,41.84c-0.649,0.06-1.37-0.42-1.989-0.771c-4.682-2.6-10.04-5.71-14.83-8.41c0-3.459,0-6.93,0-10.39
			c-9.58,0-19.16,0-28.74,0c-0.939,6.88,9.4,7.89,11.01,2.601c0.722,0.399,1.41,0.819,2.142,1.221c-1.37,2.43-3.312,4.199-6.12,4.59
			c-5.37,0.74-9.25-2.73-9.78-7.49c-0.729-6.45,3.851-11.25,9.78-10.25c3.71,0.63,5.59,3.44,6.42,7.49c5.05,0,10.09,0,15.14,0
			c0.352-2.09,0.05-4.84,0.15-7.181c5.569-3.1,11.16-6.18,16.67-9.33C402.589,16.11,402.237,30.39,402.368,41.84z M400.527,38.78
			c-0.1-10.449,0.21-21.3-0.148-31.5c-4.29,2.43-8.812,4.64-12.841,7.34c0,5.61,0,11.22,0,16.82
			C391.708,34.049,396.169,36.37,400.527,38.78z M357.107,19.82c3.37-0.1,7.141,0.2,10.25-0.149
			C366.697,14.26,357.607,14.25,357.107,19.82z"/>
		<path fill="#FFFFFF" d="M400.379,7.28c0.358,10.2,0.05,21.05,0.148,31.5c-4.358-2.41-8.819-4.729-12.989-7.34
			c0-5.6,0-11.21,0-16.82C391.567,11.92,396.089,9.71,400.379,7.28z"/>
		<path fill="#FFFFFF" d="M367.357,19.67c-3.109,0.35-6.88,0.05-10.25,0.149C357.607,14.25,366.697,14.26,367.357,19.67z"/>
		<path d="M344.419,24.1c1.479,7.32-9.852,8.96-11.461,2.449c0.83-0.189,1.54-0.5,2.141-0.92c0.729,3.761,7.88,3.619,6.57-0.92
			c-0.771-2.649-5.011-2.181-6.881-4.58c-2.739-3.521,1.029-7.98,5.199-7.19c1.551,0.29,2.23,1.42,3.36,2.75
			c-0.59,0.48-1.391,0.75-1.979,1.23c-0.569-2.021-5.091-2.33-4.899,0.609C336.669,20.47,343.669,20.34,344.419,24.1z"/>
		<path d="M321.178,13.25c0,5.65,0,11.311,0,16.971c-0.86,0-1.73,0-2.601,0c0-5.66,0-11.32,0-16.971
			C319.447,13.25,320.317,13.25,321.178,13.25z"/>
		<path d="M319.647,4.84c3.03-0.53,2.511,3.93,0.16,3.82C317.978,8.57,317.178,5.27,319.647,4.84z"/>
		<path d="M298.098,12.94c4.72-0.12,9.09,3.52,9.021,9.02c-0.091,6.722-6.279,9.75-11.16,8.562c-3.609-0.87-6.75-4.479-6.729-8.71
			c0.01-1.34,1-4.23,1.529-5.05C292.038,14.8,294.618,13.03,298.098,12.94z M298.248,28.23c8.399-0.05,7.631-13.69-0.761-12.69
			c-1.329,0.16-2.229,0.44-3.06,1.07C290.548,19.54,291.598,28.27,298.248,28.23z"/>
		<path fill="#FFFFFF" d="M297.487,15.54c8.392-1,9.16,12.641,0.761,12.69c-6.649,0.04-7.7-8.69-3.819-11.62
			C295.258,15.98,296.158,15.7,297.487,15.54z"/>
		<path d="M278.218,2.85c0,9.33,0,18.649,0,27.979c-0.609,0.19-0.899-0.6-1.22-0.92c-3.069-3.068-6.37-6.51-9.479-9.779
			c-3.58-3.771-7.051-7.76-10.859-11.01c-0.351,6.73-0.051,14.121-0.15,21.099c-0.92,0-1.829,0-2.75,0c0-9.279,0-18.549,0-27.829
			c-0.04-0.27,0.141-0.31,0.15-0.15c7.18,7.24,13.97,14.87,21.25,22.01c0.359-6.819,0.05-14.319,0.159-21.399
			C276.277,2.85,277.248,2.85,278.218,2.85z"/>
		<path fill="#FFFFFF" d="M215.078,15.54c8.399-1,9.159,12.641,0.76,12.69c-6.649,0.04-7.699-8.69-3.819-11.62
			C212.848,15.98,213.748,15.7,215.078,15.54z"/>
		<path d="M215.688,12.94c4.681-0.12,9.021,3.46,9.021,8.87c0,6.909-6.04,9.688-10.859,8.71c-3.46-0.7-6.29-3.76-6.88-7.18
			c-0.45-2.641,0.92-6.021,1.84-7.19C210.018,14.59,212.147,13.03,215.688,12.94z M215.838,28.23c8.399-0.05,7.641-13.69-0.76-12.69
			c-1.33,0.16-2.229,0.44-3.061,1.07C208.138,19.54,209.188,28.27,215.838,28.23z"/>
		<path d="M198.868,13.25c0,0.811,0,1.631,0,2.44c-0.97,0-1.939,0-2.91,0c-0.35,4.54-0.05,9.74-0.149,14.529c-0.86,0-1.73,0-2.601,0
			c0-4.789,0-9.579,0-14.369c-0.31-0.351-1.27-0.061-1.83-0.16c0-0.81,0-1.63,0-2.44c0.61,0,1.221,0,1.83,0c0-2.04,0-4.08,0-6.12
			c0.87,0,1.74,0,2.601,0c0,2.04,0,4.08,0,6.12C196.828,13.25,197.848,13.25,198.868,13.25z"/>
		<path d="M162.628,0.25c0,9.99,0,19.98,0,29.969c-0.859,0-1.729,0-2.6,0c0-9.839,0-19.669,0-29.509
			c-0.01-0.22-0.021-0.43,0.16-0.46C160.998,0.25,161.818,0.25,162.628,0.25z"/>
		<path d="M147.798,13.4c0,5.61,0,11.21,0,16.819c-0.909,0-1.83,0-2.75,0c0-0.77,0-1.529,0-2.299c-2.119,1.629-3.56,3.18-7.18,2.76
			c-9.29-1.102-9.42-18.17,1.22-17.74c2.94,0.12,4.011,1.27,5.811,2.75c0.43-0.48-0.12-1.95,0.3-2.44
			C146.048,13.32,147.208,13.08,147.798,13.4z M136.028,27.161c5.47,4.221,11.77-3.529,8.1-9.331c-0.779-1.239-3.18-2.609-5.5-2.29
			C133.008,16.31,132.318,24.299,136.028,27.161z"/>
		<path fill="#FFFFFF" d="M144.128,17.83c3.67,5.801-2.63,13.551-8.1,9.331c-3.71-2.859-3.021-10.851,2.6-11.621
			C140.948,15.22,143.348,16.59,144.128,17.83z"/>
		<path d="M119.818,30.219c-0.86,0-1.73,0-2.59,0c-0.75-4.77,1.67-13.02-1.84-14.68c-2.11-1-4.591-0.1-5.5,1.221
			c-1.971,2.85-0.391,9.35-0.921,13.459c-0.869,0-1.729,0-2.6,0c0-5.659,0-11.319,0-16.97c0.87,0,1.73,0,2.6,0
			c0,0.71,0,1.421,0,2.141c1.41-1.24,3.04-2.48,5.2-2.45C121.758,13.06,119.468,22.57,119.818,30.219z"/>
		<path d="M91.078,13.25c0.87,0,1.73,0,2.601,0c-0.681,11.25,3.59,28.021-9.631,26.601c-4.05-0.44-6.6-3.19-7.04-7.642
			c0.87,0,1.74,0,2.601,0c-0.28,4.842,6.189,6.951,9.479,4.281c2.12-1.721,1.86-4.871,1.99-8.57c-1.97,1.17-2.86,2.461-5.04,2.761
			c-11.41,1.569-12.39-18.04-1.07-17.74c3.03,0.08,4.07,1.31,5.961,2.75C91.278,15.18,90.978,14.01,91.078,13.25z M87.258,27.92
			c4.12-1.221,4.96-8.701,1.681-11.312c-1.07-0.85-2.96-1.14-3.971-1.07C76.888,16.07,78.538,30.52,87.258,27.92z"/>
		<path fill="#FFFFFF" d="M88.938,16.61c3.279,2.61,2.439,10.09-1.681,11.311c-8.72,2.601-10.369-11.851-2.29-12.38
			C85.978,15.47,87.868,15.76,88.938,16.61z"/>
		<path d="M65.388,13.4c0,5.61,0,11.21,0,16.819c-0.91,0-1.83,0-2.75,0c0-5.609,0-11.209,0-16.819
			C63.248,13.15,64.778,13.15,65.388,13.4z"/>
		<path d="M63.868,4.84c2.54-0.33,2.59,3.71,0.3,3.82C61.998,8.77,61.138,5.19,63.868,4.84z"/>
		<path d="M49.188,17.83c4.67,5.331-0.8,13.67-8.26,12.851c-3.69-0.41-5.921-2.87-7.181-6.729c0.8-0.359,1.76-0.58,2.75-0.761
			c0.63,7.56,13.561,5.95,11.311-2.15c-1.48-5.33-12.601-4.029-12.69-11.459c-6.32,0-12.64,0-18.96,0c-0.7,0.97-0.68,1.89-1.22,2.75
			c-3.86,6.1-15.021,3.83-14.681-4.59c0.37-9.06,14.101-10.26,15.75-1.07c6.471,0,12.95,0,19.421,0c1.13-0.97,1.56-2.2,2.899-3.06
			c3.91-2.47,9.47-0.73,11.32,2.76c-0.55,0.57-1.29,0.95-1.99,1.37c-1.07-0.83-1.53-2.14-3.06-2.6c-3.33-0.98-7.67,1.29-6.57,5.35
			c0.55,2.06,3.22,3.04,5.35,3.98C45.518,15.42,47.888,16.36,49.188,17.83z M10.048,12.64c3.69-1.43,3.86-7.12,0.61-8.87
			c-0.83-0.45-1.77-0.56-2.91-0.46c-2.49,0.23-3.54,1.39-4.12,2.9C1.958,10.54,6.208,14.12,10.048,12.64z"/>
		<path fill="#FFFFFF" d="M10.658,3.77c3.25,1.75,3.08,7.44-0.61,8.87c-3.84,1.479-8.09-2.1-6.42-6.43c0.58-1.51,1.63-2.67,4.12-2.9
			C8.888,3.21,9.828,3.32,10.658,3.77z"/>
	</g>
</g>
</svg>
